<svg version="1.1" viewBox="0.0 0.0 962.6955380577427 251.6955380577428" fill="none" stroke="none" stroke-linecap="square" stroke-miterlimit="10" xmlns:xlink="http://www.w3.org/1999/xlink" xmlns="http://www.w3.org/2000/svg"><clipPath id="p.0"><path d="m0 0l962.69556 0l0 251.69554l-962.69556 0l0 -251.69554z" clip-rule="nonzero"/></clipPath><g clip-path="url(#p.0)"><path fill="#000000" fill-opacity="0.0" d="m0 0l962.69556 0l0 251.69554l-962.69556 0z" fill-rule="evenodd"/><path fill="#000000" fill-opacity="0.0" d="m0 0l960.0 0l0 347.1496l-960.0 0z" fill-rule="evenodd"/><path fill="#0000ff" d="m109.63309 142.07999l17.0 0q-1.328125 12.21875 -7.0 21.875q-5.65625 9.65625 -16.015625 15.28125q-10.359375 5.609375 -25.84375 5.609375q-11.34375 0 -20.59375 -4.25q-9.25 -4.25 -15.890625 -12.078125q-6.640625 -7.84375 -10.234375 -18.859375q-3.578125 -11.03125 -3.578125 -24.578125l0 -12.828125q0 -13.546875 3.578125 -24.5625q3.59375 -11.03125 10.359375 -18.90625q6.78125 -7.890625 16.34375 -12.140625q9.5625 -4.25 21.515625 -4.25q14.609375 0 24.703125 5.5q10.09375 5.484375 15.703125 15.1875q5.625 9.6875 6.953125 22.4375l-17.0 0q-1.234375 -9.03125 -4.59375 -15.53125q-3.359375 -6.515625 -9.5625 -10.046875q-6.203125 -3.546875 -16.203125 -3.546875q-8.59375 0 -15.109375 3.28125q-6.5 3.265625 -10.890625 9.296875q-4.375 6.015625 -6.59375 14.421875q-2.203125 8.40625 -2.203125 18.671875l0 13.015625q0 9.484375 1.984375 17.8125q2.0 8.3125 6.0625 14.609375q4.078125 6.28125 10.359375 9.875q6.296875 3.578125 14.890625 3.578125q10.890625 0 17.34375 -3.453125q6.46875 -3.453125 9.78125 -9.921875q3.328125 -6.46875 4.734375 -15.5zm55.52266 -95.0l0 136.0l-16.46875 0l0 -136.0l16.46875 0zm21.951859 89.15625l0 -2.03125q0 -10.359375 3.015625 -19.25q3.015625 -8.90625 8.671875 -15.5q5.671875 -6.59375 13.71875 -10.265625q8.0625 -3.671875 18.078125 -3.671875q10.09375 0 18.1875 3.671875q8.109375 3.671875 13.8125 10.265625q5.71875 6.59375 8.71875 15.5q3.015625 8.890625 3.015625 19.25l0 2.03125q0 10.359375 -3.015625 19.21875q-3.0 8.859375 -8.71875 15.453125q-5.703125 6.59375 -13.71875 10.265625q-8.015625 3.671875 -18.109375 3.671875q-10.09375 0 -18.15625 -3.671875q-8.046875 -3.671875 -13.765625 -10.265625q-5.703125 -6.59375 -8.71875 -15.453125q-3.015625 -8.859375 -3.015625 -19.21875zm16.390625 -2.03125l0 2.03125q0 7.171875 1.671875 13.515625q1.6875 6.328125 5.09375 11.203125q3.40625 4.859375 8.546875 7.65625q5.140625 2.78125 11.953125 2.78125q6.734375 0 11.8125 -2.78125q5.09375 -2.796875 8.453125 -7.65625q3.375 -4.875 5.09375 -11.203125q1.734375 -6.34375 1.734375 -13.515625l0 -2.03125q0 -7.078125 -1.734375 -13.40625q-1.71875 -6.34375 -5.125 -11.25q-3.40625 -4.921875 -8.5 -7.75q-5.09375 -2.828125 -11.90625 -2.828125q-6.734375 0 -11.828125 2.828125q-5.09375 2.828125 -8.5 7.75q-3.40625 4.90625 -5.09375 11.25q-1.671875 6.328125 -1.671875 13.40625zm149.9762 26.734375l0 -73.65625l16.46875 0l0 95.796875l-15.671875 0l-0.796875 -22.140625zm3.109375 -20.1875l6.8125 -0.171875q0 9.5625 -2.0 17.671875q-1.984375 8.09375 -6.421875 14.03125q-4.421875 5.921875 -11.59375 9.25q-7.171875 3.3125 -17.4375 3.3125q-7.0 0 -12.796875 -2.03125q-5.796875 -2.03125 -9.96875 -6.28125q-4.15625 -4.25 -6.421875 -11.0625q-2.25 -6.828125 -2.25 -16.390625l0 -61.796875l16.390625 0l0 61.96875q0 6.46875 1.453125 10.671875q1.46875 4.203125 3.984375 6.640625q2.53125 2.4375 5.671875 3.421875q3.140625 0.96875 6.5 0.96875q10.453125 0 16.5625 -4.03125q6.109375 -4.03125 8.8125 -10.890625q2.703125 -6.859375 2.703125 -15.28125zm98.63254 23.734375l0 -117.40625l16.46875 0l0 136.0l-15.0625 0l-1.40625 -18.59375zm-64.46875 -28.25l0 -1.859375q0 -10.96875 2.703125 -19.953125q2.703125 -9.0 7.703125 -15.453125q5.0 -6.46875 11.953125 -9.953125q6.953125 -3.5 15.546875 -3.5q9.03125 0 15.796875 3.140625q6.78125 3.140625 11.515625 9.125q4.734375 5.96875 7.46875 14.375q2.75 8.40625 3.8125 19.03125l0 8.15625q-0.96875 10.53125 -3.765625 18.953125q-2.78125 8.40625 -7.515625 14.34375q-4.734375 5.921875 -11.5625 9.0625q-6.8125 3.140625 -15.9375 3.140625q-8.40625 0 -15.359375 -3.625q-6.953125 -3.625 -11.953125 -10.171875q-5.0 -6.5625 -7.703125 -15.453125q-2.703125 -8.90625 -2.703125 -19.359375zm16.46875 -1.859375l0 1.859375q0 7.171875 1.453125 13.46875q1.46875 6.28125 4.5625 11.0625q3.109375 4.78125 7.890625 7.484375q4.78125 2.703125 11.421875 2.703125q8.140625 0 13.40625 -3.453125q5.28125 -3.453125 8.46875 -9.125q3.1875 -5.671875 4.953125 -12.3125l0 -21.328125q-1.0625 -4.875 -3.0625 -9.4375q-1.984375 -4.5625 -5.125 -8.140625q-3.140625 -3.59375 -7.703125 -5.71875q-4.5625 -2.125 -10.765625 -2.125q-6.71875 0 -11.546875 2.796875q-4.828125 2.78125 -7.9375 7.609375q-3.09375 4.828125 -4.5625 11.15625q-1.453125 6.328125 -1.453125 13.5z" fill-rule="nonzero"/><path fill="#f7c002" d="m516.6509 54.173737l0 128.90625l-17.078094 0l0 -128.90625l17.078094 0zm77.828125 0l-53.5625 60.109375l-30.109344 31.25l-2.828125 -18.234375l22.671844 -24.96875l43.296875 -48.15625l20.53125 0zm-16.46875 128.90625l-47.71875 -62.859375l10.1875 -13.546875l57.890625 76.40625l-20.359375 0zm89.33533 -16.375l0 -49.328125q0 -5.65625 -2.265625 -9.859375q-2.25 -4.21875 -6.765625 -6.515625q-4.515625 -2.296875 -11.15625 -2.296875q-6.1875 0 -10.84375 2.125q-4.640625 2.125 -7.265625 5.578125q-2.609375 3.453125 -2.609375 7.4375l-16.375 0q0 -5.140625 2.65625 -10.1875q2.65625 -5.046875 7.65625 -9.15625q5.0 -4.125 12.03125 -6.546875q7.046875 -2.4375 15.734375 -2.4375q10.4375 0 18.453125 3.546875q8.015625 3.53125 12.578125 10.65625q4.5625 7.125 4.5625 17.84375l0 44.625q0 4.78125 0.828125 10.1875q0.84375 5.390625 2.53125 9.28125l0 1.421875l-17.09375 0q-1.234375 -2.828125 -1.953125 -7.5625q-0.703125 -4.75 -0.703125 -8.8125zm2.84375 -41.703125l0.171875 11.5l-16.5625 0q-6.984375 0 -12.484375 1.109375q-5.484375 1.109375 -9.203125 3.328125q-3.71875 2.203125 -5.671875 5.53125q-1.9375 3.3125 -1.9375 7.75q0 4.515625 2.03125 8.234375q2.03125 3.71875 6.140625 5.890625q4.125 2.15625 10.15625 2.15625q7.515625 0 13.265625 -3.1875q5.765625 -3.1875 9.171875 -7.78125q3.40625 -4.609375 3.671875 -8.953125l7.0 7.890625q-0.625 3.71875 -3.375 8.234375q-2.734375 4.515625 -7.296875 8.640625q-4.5625 4.109375 -10.8125 6.8125q-6.234375 2.6875 -14.015625 2.6875q-9.75 0 -17.0625 -3.796875q-7.296875 -3.8125 -11.328125 -10.234375q-4.015625 -6.421875 -4.015625 -14.390625q0 -7.703125 3.0 -13.578125q3.015625 -5.890625 8.671875 -9.828125q5.671875 -3.953125 13.640625 -5.984375q7.96875 -2.03125 17.796875 -2.03125l19.046875 0zm55.679443 -22.671875l0 80.75l-16.375 0l0 -95.796875l15.9375 0l0.4375 15.046875zm29.9375 -15.578125l-0.09375 15.21875q-2.03125 -0.4375 -3.859375 -0.5625q-1.8125 -0.140625 -4.109375 -0.140625q-5.671875 0 -10.015625 1.78125q-4.328125 1.765625 -7.34375 4.953125q-3.0 3.1875 -4.734375 7.578125q-1.71875 4.375 -2.25 9.59375l-4.609375 2.65625q0 -8.671875 1.71875 -16.28125q1.734375 -7.625 5.359375 -13.5q3.640625 -5.890625 9.25 -9.203125q5.625 -3.328125 13.421875 -3.328125q1.765625 0 4.0625 0.40625q2.3125 0.390625 3.203125 0.828125zm43.649292 86.40625l26.640625 -85.875l17.53125 0l-38.421875 110.578125q-1.328125 3.546875 -3.5 7.65625q-2.171875 4.125 -5.53125 7.84375q-3.359375 3.71875 -8.109375 6.0625q-4.734375 2.34375 -11.28125 2.34375q-1.953125 0 -4.96875 -0.53125q-3.0 -0.53125 -4.234375 -0.875l-0.09375 -13.28125q0.703125 0.078125 2.25 0.203125q1.5625 0.140625 2.171875 0.140625q5.578125 0 9.46875 -1.46875q3.90625 -1.453125 6.609375 -4.859375q2.703125 -3.40625 4.640625 -9.34375l6.828125 -18.59375zm-19.578125 -85.875l24.890625 74.375l4.25 17.265625l-11.78125 6.015625l-35.234375 -97.65625l17.875 0zm133.60693 79.421875l0 -49.328125q0 -5.65625 -2.265625 -9.859375q-2.25 -4.21875 -6.765625 -6.515625q-4.515625 -2.296875 -11.15625 -2.296875q-6.1875 0 -10.84375 2.125q-4.640625 2.125 -7.265625 5.578125q-2.609375 3.453125 -2.609375 7.4375l-16.375 0q0 -5.140625 2.65625 -10.1875q2.65625 -5.046875 7.65625 -9.15625q5.0 -4.125 12.03125 -6.546875q7.046875 -2.4375 15.734375 -2.4375q10.4375 0 18.453125 3.546875q8.015625 3.53125 12.578125 10.65625q4.5625 7.125 4.5625 17.84375l0 44.625q0 4.78125 0.828125 10.1875q0.84375 5.390625 2.53125 9.28125l0 1.421875l-17.09375 0q-1.234375 -2.828125 -1.953125 -7.5625q-0.703125 -4.75 -0.703125 -8.8125zm2.84375 -41.703125l0.171875 11.5l-16.5625 0q-6.984375 0 -12.484375 1.109375q-5.484375 1.109375 -9.203125 3.328125q-3.71875 2.203125 -5.671875 5.53125q-1.9375 3.3125 -1.9375 7.75q0 4.515625 2.03125 8.234375q2.03125 3.71875 6.140625 5.890625q4.125 2.15625 10.15625 2.15625q7.515625 0 13.265625 -3.1875q5.765625 -3.1875 9.171875 -7.78125q3.40625 -4.609375 3.671875 -8.953125l7.0 7.890625q-0.625 3.71875 -3.375 8.234375q-2.734375 4.515625 -7.296875 8.640625q-4.5625 4.109375 -10.8125 6.8125q-6.234375 2.6875 -14.015625 2.6875q-9.75 0 -17.0625 -3.796875q-7.296875 -3.8125 -11.328125 -10.234375q-4.015625 -6.421875 -4.015625 -14.390625q0 -7.703125 3.0 -13.578125q3.015625 -5.890625 8.671875 -9.828125q5.671875 -3.953125 13.640625 -5.984375q7.96875 -2.03125 17.796875 -2.03125l19.046875 0z" fill-rule="nonzero"/></g></svg>