<svg version="1.1" viewBox="0.0 0.0 962.6955380577427 251.6955380577428" fill="none" stroke="none" stroke-linecap="square" stroke-miterlimit="10" xmlns:xlink="http://www.w3.org/1999/xlink" xmlns="http://www.w3.org/2000/svg"><clipPath id="p.0"><path d="m0 0l962.69556 0l0 251.69554l-962.69556 0l0 -251.69554z" clip-rule="nonzero"/></clipPath><g clip-path="url(#p.0)"><path fill="#000000" fill-opacity="0.0" d="m0 0l962.69556 0l0 251.69554l-962.69556 0z" fill-rule="evenodd"/><path fill="#000000" fill-opacity="0.0" d="m0 0l960.0 0l0 347.1496l-960.0 0z" fill-rule="evenodd"/><path fill="#ffffff" d="m96.26868 140.31436l26.46875 0q-0.796875 13.015625 -7.125 23.109375q-6.328125 10.09375 -17.625 15.765625q-11.28125 5.65625 -27.125 5.65625q-12.390625 0 -22.21875 -4.28125q-9.828125 -4.296875 -16.78125 -12.359375q-6.953125 -8.0625 -10.59375 -19.484375q-3.625 -11.421875 -3.625 -25.578125l0 -8.953125q0 -14.15625 3.765625 -25.625q3.765625 -11.46875 10.796875 -19.515625q7.046875 -8.0625 16.875 -12.390625q9.828125 -4.34375 21.953125 -4.34375q16.125 0 27.234375 5.84375q11.109375 5.84375 17.25 16.109375q6.15625 10.265625 7.40625 23.375l-26.46875 0q-0.53125 -7.796875 -3.1875 -13.234375q-2.65625 -5.453125 -8.015625 -8.234375q-5.359375 -2.796875 -14.21875 -2.796875q-6.640625 0 -11.59375 2.484375q-4.953125 2.484375 -8.328125 7.53125q-3.359375 5.046875 -5.0 12.703125q-1.640625 7.65625 -1.640625 17.921875l0 9.125q0 10.0 1.5 17.578125q1.515625 7.5625 4.65625 12.75q3.140625 5.171875 8.140625 7.78125q5.015625 2.609375 12.09375 2.609375q8.328125 0 13.71875 -2.65625q5.40625 -2.65625 8.28125 -7.875q2.875 -5.21875 3.40625 -13.015625zm69.236176 -93.234375l0 136.0l-25.578125 0l0 -136.0l25.578125 0zm17.00383 89.078125l0 -1.859375q0 -10.546875 3.0 -19.4375q3.015625 -8.90625 8.765625 -15.453125q5.765625 -6.546875 14.171875 -10.21875q8.421875 -3.671875 19.3125 -3.671875q10.890625 0 19.390625 3.671875q8.5 3.671875 14.29686 10.21875q5.796875 6.546875 8.796875 15.453125q3.015625 8.890625 3.015625 19.4375l0 1.859375q0 10.4375 -3.015625 19.34375q-3.0 8.890625 -8.796875 15.5q-5.7968597 6.59375 -14.218735 10.21875q-8.40625 3.625 -19.296875 3.625q-10.890625 0 -19.34375 -3.625q-8.453125 -3.625 -14.265625 -10.21875q-5.796875 -6.609375 -8.8125 -15.5q-3.0 -8.90625 -3.0 -19.34375zm25.5 -1.859375l0 1.859375q0 6.015625 1.0625 11.25q1.0625 5.21875 3.40625 9.15625q2.34375 3.9375 6.15625 6.15625q3.8125 2.203125 9.296875 2.203125q5.3125 0 9.109375 -2.203125q3.8125 -2.21875 6.109375 -6.15625q2.3125 -3.9375 3.421875 -9.15625q1.109375 -5.234375 1.109375 -11.25l0 -1.859375q0 -5.84375 -1.109375 -11.015625q-1.109375 -5.1875 -3.453125 -9.21875q-2.34375 -4.03125 -6.15625 -6.328125q-3.8125 -2.3125 -9.203125 -2.3125q-5.40625 0 -9.171875 2.3125q-3.765625 2.296875 -6.109375 6.328125q-2.34375 4.03125 -3.40625 9.21875q-1.0625 5.171875 -1.0625 11.015625zm137.58562 25.84375l0 -72.859375l25.5 0l0 95.796875l-23.984375 0l-1.515625 -22.9375zm2.84375 -19.65625l7.515625 -0.171875q0 9.5625 -2.21875 17.75q-2.203125 8.1875 -6.640625 14.171875q-4.421875 5.96875 -11.15625 9.296875q-6.71875 3.3125 -15.84375 3.3125q-6.984375 0 -12.875 -1.984375q-5.890625 -2.0 -10.09375 -6.28125q-4.203125 -4.296875 -6.5625 -11.0625q-2.34375 -6.78125 -2.34375 -16.34375l0 -61.890625l25.5 0l0 62.0625q0 4.25 1.015625 7.171875q1.03125 2.921875 2.890625 4.78125q1.859375 1.859375 4.375 2.65625q2.53125 0.796875 5.625 0.796875q7.875 0 12.4375 -3.1875q4.5625 -3.1875 6.46875 -8.71875q1.90625 -5.53125 1.90625 -12.359375zm98.63251 21.703125l0 -115.109375l25.671875 0l0 136.0l-23.109375 0l-2.5625 -20.890625zm-60.5625 -25.859375l0 -1.859375q0 -10.984375 2.46875 -19.96875q2.484375 -8.984375 7.265625 -15.4375q4.78125 -6.46875 11.765625 -10.0q7.0 -3.546875 15.953125 -3.546875q8.40625 0 14.734375 3.546875q6.328125 3.53125 10.796875 10.046875q4.484375 6.5 7.21875 15.3125q2.75 8.796875 3.984375 19.25l0 4.078125q-1.234375 10.0 -3.984375 18.59375q-2.734375 8.578125 -7.21875 15.0q-4.46875 6.421875 -10.84375 9.96875q-6.375 3.53125 -14.875 3.53125q-8.9375 0 -15.890625 -3.625q-6.953125 -3.625 -11.6875 -10.171875q-4.734375 -6.5625 -7.21875 -15.40625q-2.46875 -8.859375 -2.46875 -19.3125zm25.5 -1.859375l0 1.859375q0 5.9375 0.921875 11.078125q0.9375 5.125 3.09375 9.0625q2.171875 3.9375 5.671875 6.109375q3.5 2.171875 8.546875 2.171875q6.546875 0 10.796875 -2.96875q4.25 -2.96875 6.5 -8.1875q2.265625 -5.21875 2.625 -12.046875l0 -11.59375q-0.265625 -5.578125 -1.546875 -10.046875q-1.28125 -4.46875 -3.71875 -7.65625q-2.4375 -3.1875 -6.03125 -4.953125q-3.578125 -1.78125 -8.453125 -1.78125q-4.953125 0 -8.5 2.265625q-3.53125 2.25 -5.703125 6.15625q-2.171875 3.890625 -3.1875 9.15625q-1.015625 5.265625 -1.015625 11.375z" fill-rule="nonzero"/><path fill="#f7c002" d="m520.7343 54.173737l0 128.90625l-26.5625 0l0 -128.90625l26.5625 0zm77.203125 0l-51.09375 63.65625l-29.484375 31.6875l-4.78125 -25.140625l19.921875 -27.265625l32.859375 -42.9375l32.578125 0zm-30.1875 128.90625l-37.984375 -59.59375l19.65625 -16.46875l49.75 76.0625l-31.421875 0zm91.809204 -21.609375l0 -42.671875q0 -4.609375 -1.515625 -7.921875q-1.5 -3.328125 -4.640625 -5.1875q-3.140625 -1.859375 -8.09375 -1.859375q-4.25 0 -7.359375 1.46875q-3.09375 1.453125 -4.78125 4.15625q-1.671875 2.703125 -1.671875 6.328125l-25.5 0q0 -6.109375 2.828125 -11.59375q2.828125 -5.484375 8.234375 -9.6875q5.40625 -4.203125 12.875 -6.59375q7.484375 -2.390625 16.78125 -2.390625q11.15625 0 19.828125 3.71875q8.6875 3.703125 13.6875 11.140625q5.0 7.4375 5.0 18.59375l0 41.0q0 7.875 0.96875 12.890625q0.984375 5.0 2.84375 8.71875l0 1.5l-25.765625 0q-1.859375 -3.890625 -2.796875 -9.78125q-0.921875 -5.890625 -0.921875 -11.828125zm3.359375 -36.734375l0.1875 14.421875l-14.265625 0q-5.046875 0 -8.765625 1.15625q-3.71875 1.15625 -6.109375 3.234375q-2.390625 2.078125 -3.5 4.828125q-1.09375 2.734375 -1.09375 6.015625q0 3.28125 1.5 5.890625q1.5 2.609375 4.328125 4.078125q2.84375 1.453125 6.65625 1.453125q5.75 0 10.0 -2.296875q4.25 -2.3125 6.59375 -5.671875q2.34375 -3.359375 2.4375 -6.375l6.734375 10.796875q-1.421875 3.640625 -3.859375 7.53125q-2.4375 3.890625 -6.15625 7.3125q-3.71875 3.40625 -8.9375 5.578125q-5.21875 2.15625 -12.390625 2.15625q-9.125 0 -16.515625 -3.671875q-7.390625 -3.671875 -11.6875 -10.171875q-4.296875 -6.515625 -4.296875 -14.84375q0 -7.515625 2.828125 -13.359375q2.84375 -5.84375 8.375 -9.875q5.53125 -4.03125 13.84375 -6.109375q8.328125 -2.078125 19.3125 -2.078125l14.78125 0zm67.47638 -16.5625l0 74.90625l-25.5 0l0 -95.796875l23.984375 0l1.515625 20.890625zm28.859375 -21.515625l-0.4375 23.640625q-1.859375 -0.265625 -4.484375 -0.484375q-2.609375 -0.21875 -4.734375 -0.21875q-5.390625 0 -9.34375 1.375q-3.9375 1.359375 -6.546875 3.984375q-2.609375 2.609375 -3.890625 6.46875q-1.28125 3.84375 -1.46875 8.703125l-5.125 -1.59375q0 -9.296875 1.859375 -17.125q1.859375 -7.84375 5.4375 -13.671875q3.59375 -5.84375 8.8125 -9.03125q5.21875 -3.1875 11.953125 -3.1875q2.125 0 4.328125 0.3125q2.21875 0.296875 3.640625 0.828125zm42.060547 85.625l25.40625 -85.0l27.359375 0l-38.515625 110.234375q-1.234375 3.625 -3.328125 7.78125q-2.078125 4.171875 -5.578125 7.921875q-3.484375 3.765625 -8.765625 6.15625q-5.265625 2.390625 -12.875 2.390625q-3.625 0 -5.9375 -0.4375q-2.296875 -0.4375 -5.484375 -1.234375l0 -18.6875q0.96875 0 2.03125 0.046875q1.0625 0.046875 2.046875 0.046875q5.046875 0 8.234375 -1.15625q3.1875 -1.15625 5.125 -3.5q1.953125 -2.34375 3.109375 -6.0625l7.171875 -18.5zm-10.625 -85.0l20.796875 69.40625l3.640625 27.015625l-17.359375 1.859375l-34.4375 -98.28125l27.359375 0zm123.862 74.1875l0 -42.671875q0 -4.609375 -1.515625 -7.921875q-1.5 -3.328125 -4.640625 -5.1875q-3.140625 -1.859375 -8.09375 -1.859375q-4.25 0 -7.359375 1.46875q-3.09375 1.453125 -4.78125 4.15625q-1.671875 2.703125 -1.671875 6.328125l-25.5 0q0 -6.109375 2.828125 -11.59375q2.828125 -5.484375 8.234375 -9.6875q5.40625 -4.203125 12.875 -6.59375q7.484375 -2.390625 16.78125 -2.390625q11.15625 0 19.828125 3.71875q8.6875 3.703125 13.6875 11.140625q5.0 7.4375 5.0 18.59375l0 41.0q0 7.875 0.96875 12.890625q0.984375 5.0 2.84375 8.71875l0 1.5l-25.765625 0q-1.859375 -3.890625 -2.796875 -9.78125q-0.921875 -5.890625 -0.921875 -11.828125zm3.359375 -36.734375l0.1875 14.421875l-14.265625 0q-5.046875 0 -8.765625 1.15625q-3.71875 1.15625 -6.109375 3.234375q-2.390625 2.078125 -3.5 4.828125q-1.09375 2.734375 -1.09375 6.015625q0 3.28125 1.5 5.890625q1.5 2.609375 4.328125 4.078125q2.84375 1.453125 6.65625 1.453125q5.75 0 10.0 -2.296875q4.25 -2.3125 6.59375 -5.671875q2.34375 -3.359375 2.4375 -6.375l6.734375 10.796875q-1.421875 3.640625 -3.859375 7.53125q-2.4375 3.890625 -6.15625 7.3125q-3.71875 3.40625 -8.9375 5.578125q-5.21875 2.15625 -12.390625 2.15625q-9.125 0 -16.515625 -3.671875q-7.390625 -3.671875 -11.6875 -10.171875q-4.296875 -6.515625 -4.296875 -14.84375q0 -7.515625 2.828125 -13.359375q2.84375 -5.84375 8.375 -9.875q5.53125 -4.03125 13.84375 -6.109375q8.328125 -2.078125 19.3125 -2.078125l14.78125 0z" fill-rule="nonzero"/></g></svg>